<svg width="145" height="138" viewBox="0 0 145 138" fill="none" xmlns="http://www.w3.org/2000/svg">
    <rect x="4.23494" y="5.60318" width="82.5232" height="78.2528" rx="9" transform="matrix(0.991367 0.131114 -0.144379 0.989523 53.8507 -0.496554)" fill="#D9D9D9" stroke="#949494" stroke-width="10"/>
    <ellipse cx="10.0569" cy="9.59269" rx="10.0569" ry="9.59269" transform="matrix(0.991367 0.131114 -0.144379 0.989523 106.621 22.5717)" fill="#939393"/>
    <ellipse cx="10.0569" cy="9.59269" rx="10.0569" ry="9.59269" transform="matrix(0.991367 0.131114 -0.144379 0.989523 61.2012 55.266)" fill="black"/>
    <ellipse cx="10.0569" cy="9.59269" rx="10.0569" ry="9.59269" transform="matrix(0.991367 0.131114 -0.144379 0.989523 101.081 60.5403)" fill="#939393"/>
    <ellipse cx="10.0569" cy="9.59269" rx="10.0569" ry="9.59269" transform="matrix(0.991367 0.131114 -0.144379 0.989523 66.741 17.2972)" fill="#939393"/>
    <rect x="5" y="54.8333" width="82.6052" height="78.1667" rx="9" fill="#D9D9D9" stroke="#949494" stroke-width="10"/>
    <ellipse cx="66.4342" cy="74.75" rx="10.0658" ry="9.58333" fill="#939393"/>
    <ellipse cx="26.171" cy="113.083" rx="10.0658" ry="9.58333" fill="#939393"/>
    <ellipse cx="46.3026" cy="93.9166" rx="10.0658" ry="9.58333" fill="#939393"/>
</svg>
