<svg width="37" height="36" viewBox="0 0 37 36" fill="none" xmlns="http://www.w3.org/2000/svg">
<rect x="0.846989" y="1.12064" width="21.6535" height="20.5618" rx="5" transform="matrix(0.991367 0.131114 -0.144379 0.989523 13.7199 -0.0993108)" fill="#D9D9D9" stroke="#949494" stroke-width="2"/>
<ellipse cx="2.57103" cy="2.45237" rx="2.57103" ry="2.45237" transform="matrix(0.991367 0.131114 -0.144379 0.989523 27.2576 5.77051)" fill="#939393"/>
<ellipse cx="2.57103" cy="2.45237" rx="2.57103" ry="2.45237" transform="matrix(0.991367 0.131114 -0.144379 0.989523 15.646 14.1287)" fill="black"/>
<ellipse cx="2.57103" cy="2.45237" rx="2.57103" ry="2.45237" transform="matrix(0.991367 0.131114 -0.144379 0.989523 25.8413 15.4772)" fill="#939393"/>
<ellipse cx="2.57103" cy="2.45237" rx="2.57103" ry="2.45237" transform="matrix(0.991367 0.131114 -0.144379 0.989523 17.0623 4.42206)" fill="#939393"/>
<rect x="1" y="13.7399" width="21.6745" height="20.5398" rx="5" fill="#D9D9D9" stroke="#949494" stroke-width="2"/>
<ellipse cx="16.984" cy="19.1098" rx="2.57331" ry="2.44997" fill="#939393"/>
<ellipse cx="6.69074" cy="28.9097" rx="2.57331" ry="2.44997" fill="#939393"/>
<ellipse cx="11.8372" cy="24.0098" rx="2.57331" ry="2.44997" fill="#939393"/>
</svg>
